<svg id="Capa_1" enable-background="new 0 0 512.004 512.004" height="512" viewBox="0 0 512.004 512.004" width="512" xmlns="http://www.w3.org/2000/svg"><g><path d="m453.418 493.439-49.429-60.337v-20.162c0-7.448-6.06-13.508-13.508-13.508h-5.254v-28.218c0-4.142-3.358-7.5-7.5-7.5s-7.5 3.358-7.5 7.5v27.898h-63.11v-120.711h20.361c5.513 0 9.998 4.5 9.998 10.032 0 13.803 11.214 25.032 24.998 25.032 2.453.005 5.393.057 7.753-.487v25.362c.342 9.925 14.658 9.928 15 0v-34.79c3.191-4.204 5.09-9.442 5.09-15.117v-60.035c0-4.142-3.358-7.5-7.5-7.5h-36.65v-15.722c13.952-3.386 24.348-15.992 24.348-30.991 0-8.31-3.191-23.06-7.587-35.071-12.708-36.419-35.808-36.419-48.516 0-4.397 12.011-7.587 26.761-7.587 35.071 0 14.997 10.393 27.603 24.343 30.99v15.723h-36.646c-4.142 0-7.5 3.358-7.5 7.5v42.502c0 3.3 2.134 6.096 5.095 7.099v121.432h-5.259c-7.449 0-13.508 6.06-13.508 13.508v21.403l-17.352 21.183-18.367-22.418v-20.167c0-7.448-6.06-13.508-13.508-13.508h-5.255v-207.68c3.192-4.204 5.091-9.443 5.091-15.119v-60.034c0-4.142-3.358-7.5-7.5-7.5h-36.651v-15.722c13.953-3.386 24.348-15.992 24.348-30.992 0-8.31-3.191-23.06-7.587-35.071-12.708-36.419-35.808-36.419-48.516 0-4.397 12.011-7.587 26.761-7.587 35.071 0 14.997 10.393 27.602 24.342 30.99v15.724h-36.645c-4.142 0-7.5 3.358-7.5 7.5v42.502c0 3.3 2.134 6.095 5.094 7.099v65.854c0 4.142 3.358 7.5 7.5 7.5s7.5-3.358 7.5-7.5v-65.452h20.362c5.513 0 9.998 4.5 9.998 10.032 0 13.803 11.214 25.032 24.998 25.032 2.452.005 5.392.057 7.751-.487v197.933h-63.11v-133.553c0-4.142-3.358-7.5-7.5-7.5s-7.5 3.358-7.5 7.5v133.873h-5.258c-7.449 0-13.508 6.06-13.508 13.508v21.406l-48.412 59.089c-6.071 7.23-.72 18.694 8.781 18.568 33.237.003 180.953-.002 210.915 0h166.362c9.371.156 14.925-11.319 8.782-18.564zm-131.595-319.254c-.41-9.398 8.863-43.069 16.845-47.338 8.014 4.307 17.261 38.014 16.845 47.338-.922 22.405-32.765 22.409-33.69 0zm-19.802 61.713h73.295v52.535c0 5.532-4.485 10.032-9.998 10.032h-2.845c-5.513 0-9.998-4.5-9.998-10.032 0-13.803-11.214-25.032-24.998-25.032h-25.457v-27.503zm-13.673 178.534h100.64v14.47h-100.64zm-132.884-352.047c-.41-9.398 8.863-43.07 16.845-47.338 8.015 4.308 17.261 38.014 16.845 47.338-.923 22.406-32.765 22.409-33.69 0zm43.495 124.281h-2.845c-5.513 0-9.998-4.5-9.998-10.032 0-13.803-11.214-25.032-24.998-25.032h-25.457v-27.502h73.295v52.534c.001 5.531-4.484 10.032-9.997 10.032zm-76.969 227.766h100.64v14.474h-100.64zm111.726 82.57h-158.67l43.501-53.096h108.538c10.858 13.252 32.704 39.917 43.502 53.096zm55.329 0c.554-1.55-22.184-27.815-23.352-29.642l19.211-23.454h108.544l43.497 53.096z"/></g></svg>