<?xml version="1.0" encoding="iso-8859-1"?>
<!-- Generator: Adobe Illustrator 19.0.0, SVG Export Plug-In . SVG Version: 6.00 Build 0)  -->
<svg version="1.1" id="Capa_1" xmlns="http://www.w3.org/2000/svg" xmlns:xlink="http://www.w3.org/1999/xlink" x="0px" y="0px"
	 viewBox="0 0 512 512" style="enable-background:new 0 0 512 512;" xml:space="preserve">
<g>
	<g>
		<path d="M474.485,23.061H37.515C16.829,23.061,0,39.891,0,60.575v245.748v30.417v44.701c0,20.685,16.829,37.515,37.515,37.515
			h144.65l-5.733,39.566h-39.06v30.417h34.653h167.949h34.653v-30.417h-39.06l-5.733-39.566h144.65
			c20.686,0,37.515-16.83,37.515-37.515V336.74v-30.417V60.575C512,39.891,495.171,23.061,474.485,23.061z M276.948,377.848h-41.897
			v-30.417h41.897V377.848z M481.583,306.323H30.417V60.575c0-3.913,3.185-7.097,7.097-7.097h436.971
			c3.913,0,7.097,3.185,7.097,7.097V306.323z"/>
	</g>
</g>
<g>
	<g>
		<rect x="243.196" y="76.845" width="30.417" height="45.636"/>
	</g>
</g>
<g>
	<g>
		<rect x="181.367" y="89.322" transform="matrix(0.866 -0.5 0.5 0.866 -29.7336 113.3142)" width="30.417" height="45.635"/>
	</g>
</g>
<g>
	<g>
		<rect x="297.427" y="96.934" transform="matrix(0.5 -0.866 0.866 0.5 63.0013 333.4083)" width="45.635" height="30.417"/>
	</g>
</g>
<g>
	<g>
		<path d="M142.365,152.978l26.474,130.392h179.139l26.474-130.392H142.365z M179.578,183.396h32.138l1.324,19.569h-29.488
			L179.578,183.396z M193.701,252.952l-3.974-19.57h25.37l1.325,19.57H193.701z M269.907,252.953h-22.996l-1.324-19.57h25.645
			L269.907,252.953z M273.291,202.965h-29.763l-1.324-19.569h32.412L273.291,202.965z M323.116,252.952h-22.723l1.325-19.57h25.371
			L323.116,252.952z M333.265,202.965h-29.488l1.324-19.569h32.138L333.265,202.965z"/>
	</g>
</g>
<g>
</g>
<g>
</g>
<g>
</g>
<g>
</g>
<g>
</g>
<g>
</g>
<g>
</g>
<g>
</g>
<g>
</g>
<g>
</g>
<g>
</g>
<g>
</g>
<g>
</g>
<g>
</g>
<g>
</g>
</svg>
