<svg width="20" height="20" viewBox="0 0 24 24" xmlns="http://www.w3.org/2000/svg" style="background:#fff"><g fill="none" fill-rule="evenodd"><path d="M0 0h24v24H0z"/><path d="M14.772 19.289a3 3 0 003.016-.742l1.697-1.697a1 1 0 000-1.414l-2.39-2.39a1 1 0 00-1.183-.172c-1.515.82-2.721.982-3.557.146l-.459-.459-.425-.425-.885-.885c-.852-.854-.703-2.077.124-3.565a1 1 0 00-.167-1.193L8.17 4.122a1 1 0 00-1.414 0L5.06 5.819a3 3 0 00-.742 3.016c.835 2.672 2.12 4.867 3.853 6.6 1.734 1.734 3.93 3.019 6.601 3.854z" stroke="#333" stroke-width="2"/></g></svg>