<svg id="Capa_1" enable-background="new 0 0 512 512" height="512" viewBox="0 0 512 512" width="512" xmlns="http://www.w3.org/2000/svg"><g><path d="m151 183.139c-9.007 1.84-17.745 4.713-25.547 9.741l-16.23-25.225c12.709-8.187 26.931-13.469 41.777-15.591v-118.361l-151 30.007v420.586l151-29.998zm-60 72.861h-30c0-23.804 7.764-46.26 22.471-64.922l23.555 18.574c-10.489 13.316-16.026 29.341-16.026 46.348z"/><path d="m331 329.449v-271.157l-150-25v420.416l150 24.999v-119.132c-19.759-2.873-38.588-11.054-53.745-24.196l19.658-22.676c9.888 8.58 21.528 14.217 34.087 16.746zm-133.843-141.696 12.48-27.275c21.313 9.741 38.965 26.572 49.702 47.388l-26.66 13.77c-7.675-14.884-20.287-26.91-35.522-33.883zm57.906 120.762c-9.2-15.879-14.063-34.043-14.063-52.515 0-3.618-.249-7.192-.762-10.664l29.707-4.277c.689 4.878 1.055 9.858 1.055 14.941 0 13.198 3.472 26.162 10.02 37.485z"/><path d="m361 478.297 151-30.007v-420.586l-151 29.998zm60-222.268c0-.02 0-.011 0-.029 0-1.465 0-30 0-30h30v30c.011 10.04-1.408 19.99-4.204 29.561l-28.799-8.438c2.007-6.826 3.018-13.916 3.003-21.094zm-13.901 43.477 24.434 17.402c-13.638 19.131-33.501 33.281-55.957 39.873l-8.438-28.799c16.025-4.687 30.219-14.809 39.961-28.476z"/></g></svg>