<svg height="512" viewBox="0 0 53 58" width="512" xmlns="http://www.w3.org/2000/svg"><g id="Page-1" fill="none" fill-rule="evenodd"><g id="038---Favourite-File" fill-rule="nonzero"><path id="Shape" d="m5 52v-48c0-2.209139 1.790861-4 4-4h40c2.209139 0 4 1.790861 4 4v40l-12 12h-32c-2.209139 0-4-1.790861-4-4z" fill="#b0d3f0"/><path id="Shape" d="m49 35c-.5522847 0-1-.4477153-1-1v-14c0-.5522847.4477153-1 1-1s1 .4477153 1 1v14c0 .5522847-.4477153 1-1 1z" fill="#ecf0f1"/><path id="Shape" d="m49 41c-.5522847 0-1-.4477153-1-1v-2c0-.5522847.4477153-1 1-1s1 .4477153 1 1v2c0 .5522847-.4477153 1-1 1z" fill="#ecf0f1"/><path id="Shape" d="m41 56v-8c0-2.209139 1.790861-4 4-4h8z" fill="#90bae1"/><g fill="#285680"><path id="Shape" d="m13 7h-2c-.5522847 0-1-.44771525-1-1s.4477153-1 1-1h2c.5522847 0 1 .44771525 1 1s-.4477153 1-1 1z"/><path id="Shape" d="m47 7h-30c-.5522847 0-1-.44771525-1-1s.4477153-1 1-1h30c.5522847 0 1 .44771525 1 1s-.4477153 1-1 1z"/><path id="Shape" d="m13 13h-2c-.5522847 0-1-.4477153-1-1s.4477153-1 1-1h2c.5522847 0 1 .4477153 1 1s-.4477153 1-1 1z"/><path id="Shape" d="m40 13h-23c-.5522847 0-1-.4477153-1-1s.4477153-1 1-1h23c.5522847 0 1 .4477153 1 1s-.4477153 1-1 1z"/><path id="Shape" d="m13 19h-2c-.5522847 0-1-.4477153-1-1s.4477153-1 1-1h2c.5522847 0 1 .4477153 1 1s-.4477153 1-1 1z"/><path id="Shape" d="m33 19h-16c-.5522847 0-1-.4477153-1-1s.4477153-1 1-1h16c.5522847 0 1 .4477153 1 1s-.4477153 1-1 1z"/></g><path id="Shape" d="m18.528 29.205c2.363003-2.6092092 5.7158237-4.1022962 9.236-4.113 5.468 0 9.236 5.331 9.236 11.468 0 6.158-3.9 16.765-18.472 21.44-14.576-4.675-18.472-15.282-18.472-21.44 0-6.137 3.769-11.468 9.236-11.468 3.5201763.0107038 6.872997 1.5037908 9.236 4.113z" fill="#ff5364"/><path id="Shape" d="m37 36.56c-.0026736.9926918-.0930247 1.9832074-.27 2.96-1.1 6.18-5.76 14.49-18.2 18.48-12.44-3.99-17.1-12.3-18.2-18.48-.17697531-.9767926-.2673264-1.9673082-.27-2.96 0-6.14 3.76-11.47 9.23-11.47 3.5223829.012613 6.8765622 1.5081994 9.24 4.12 2.3584815-2.612834 5.7101685-4.1089283 9.23-4.12 5.47 0 9.24 5.33 9.24 11.47z" fill="#df4d60"/><path id="Shape" d="m37 36.56c-.0026736.9926918-.0930247 1.9832074-.27 2.96-2.9590602 3.4576083-6.6846425 6.1764615-10.88 7.94-4.6583648 2.0799805-9.9816352 2.0799805-14.64 0-4.19535747-1.7635385-7.92093978-4.4823917-10.88-7.94-.17697531-.9767926-.2673264-1.9673082-.27-2.96 0-6.14 3.76-11.47 9.23-11.47 3.5223829.012613 6.8765622 1.5081994 9.24 4.12 2.3584815-2.612834 5.7101685-4.1089283 9.23-4.12 5.47 0 9.24 5.33 9.24 11.47z" fill="#ff5364"/><ellipse id="Oval" cx="8.215" cy="30.894" fill="#fb7b76" rx="4.905" ry="3.74" transform="matrix(.94 -.341 .341 .94 -10.053 4.66)"/></g></g></svg>